<?xml version="1.0" encoding="UTF-8" standalone="no"?>
<svg
   xmlns:dc="http://purl.org/dc/elements/1.1/"
   xmlns:cc="http://creativecommons.org/ns#"
   xmlns:rdf="http://www.w3.org/1999/02/22-rdf-syntax-ns#"
   xmlns:svg="http://www.w3.org/2000/svg"
   xmlns="http://www.w3.org/2000/svg"
   xmlns:sodipodi="http://sodipodi.sourceforge.net/DTD/sodipodi-0.dtd"
   xmlns:inkscape="http://www.inkscape.org/namespaces/inkscape"
   version="1.1"
   id="Layer_1"
   x="0px"
   y="0px"
   viewBox="0 0 512 512"
   style="enable-background:new 0 0 512 512;"
   xml:space="preserve"
   sodipodi:docname="line-chart_freepik_3.svg"
   inkscape:version="1.0.2 (e86c870879, 2021-01-15, custom)"><metadata
   id="metadata53"><rdf:RDF><cc:Work
       rdf:about=""><dc:format>image/svg+xml</dc:format><dc:type
         rdf:resource="http://purl.org/dc/dcmitype/StillImage" /><dc:title></dc:title></cc:Work></rdf:RDF></metadata><defs
   id="defs51" /><sodipodi:namedview
   pagecolor="#ffffff"
   bordercolor="#666666"
   borderopacity="1"
   objecttolerance="10"
   gridtolerance="10"
   guidetolerance="10"
   inkscape:pageopacity="0"
   inkscape:pageshadow="2"
   inkscape:window-width="1920"
   inkscape:window-height="1004"
   id="namedview49"
   showgrid="false"
   inkscape:zoom="1.6367188"
   inkscape:cx="140.21957"
   inkscape:cy="182.68258"
   inkscape:window-x="0"
   inkscape:window-y="44"
   inkscape:window-maximized="1"
   inkscape:current-layer="Layer_1" />
<path
   d="M9.002,110.422c-4.661,0-8.44-3.779-8.44-8.44V8.44C0.563,3.779,4.341,0,9.002,0s8.44,3.779,8.44,8.44v93.543  C17.442,106.645,13.663,110.422,9.002,110.422z"
   id="path2"
   style="fill:#827c02;fill-opacity:1" />
<path
   d="M502.998,512H9.002c-4.661,0-8.44-3.779-8.44-8.44V135.74c0-4.661,3.779-8.44,8.44-8.44s8.44,3.779,8.44,8.44v359.381  h485.556c4.661,0,8.44,3.779,8.44,8.44S507.659,512,502.998,512z"
   id="path4"
   style="fill:#827c02;fill-opacity:1" />
<g
   id="g10"
   style="fill:#827c02;fill-opacity:1">
	<path
   style="fill:#827c02;fill-opacity:1"
   d="M432.106,339.774c-2.11,0-4.219-0.787-5.851-2.359L260.111,177.547   c-3.359-3.232-3.461-8.575-0.23-11.932c3.232-3.358,8.575-3.461,11.932-0.23l160.351,154.294l39.162-36.927   c3.393-3.198,8.733-3.04,11.93,0.35c3.198,3.392,3.042,8.733-0.35,11.93l-45.011,42.442   C436.269,339.009,434.187,339.774,432.106,339.774z"
   id="path6" />
	<path
   style="fill:#827c02;fill-opacity:1"
   d="M49.513,270.066c-2.26,0-4.512-0.901-6.176-2.685c-3.178-3.41-2.991-8.749,0.42-11.928   l157.538-146.848c3.279-3.056,8.377-3.015,11.606,0.092l37.959,36.525c3.359,3.232,3.461,8.575,0.23,11.934   c-3.232,3.358-8.575,3.461-11.934,0.23l-32.2-30.983L55.267,267.8C53.64,269.317,51.575,270.066,49.513,270.066z"
   id="path8" />
</g>
<g
   id="g16"
   style="fill:#827c02;fill-opacity:1">
	<path
   style="fill:#827c02;fill-opacity:1"
   d="M319.578,405.099c-2.17,0-4.263-0.836-5.838-2.344L207.087,300.614l-37.927,36.781   c-3.347,3.245-8.689,3.162-11.934-0.183c-3.244-3.347-3.163-8.689,0.183-11.934l43.765-42.442   c3.259-3.159,8.435-3.177,11.713-0.036l106.054,101.566l151.74-178.835c3.016-3.552,8.342-3.99,11.895-0.974   c3.554,3.016,3.99,8.342,0.974,11.895l-157.538,185.67c-1.505,1.773-3.676,2.848-5.999,2.968   C319.868,405.096,319.723,405.099,319.578,405.099z"
   id="path12" />
	<path
   style="fill:#827c02;fill-opacity:1"
   d="M49.513,450.11c-2.203,0-4.404-0.857-6.06-2.565c-3.244-3.345-3.163-8.689,0.183-11.934   l93.525-90.699c3.347-3.245,8.689-3.162,11.935,0.183c3.244,3.345,3.163,8.689-0.183,11.934l-93.525,90.699   C53.749,449.319,51.629,450.11,49.513,450.11z"
   id="path14" />
</g>
<g
   id="g18"
   style="fill:#827c02;fill-opacity:1">
</g>
<g
   id="g20"
   style="fill:#827c02;fill-opacity:1">
</g>
<g
   id="g22"
   style="fill:#827c02;fill-opacity:1">
</g>
<g
   id="g24"
   style="fill:#827c02;fill-opacity:1">
</g>
<g
   id="g26"
   style="fill:#827c02;fill-opacity:1">
</g>
<g
   id="g28"
   style="fill:#827c02;fill-opacity:1">
</g>
<g
   id="g30"
   style="fill:#827c02;fill-opacity:1">
</g>
<g
   id="g32"
   style="fill:#827c02;fill-opacity:1">
</g>
<g
   id="g34"
   style="fill:#827c02;fill-opacity:1">
</g>
<g
   id="g36"
   style="fill:#827c02;fill-opacity:1">
</g>
<g
   id="g38"
   style="fill:#827c02;fill-opacity:1">
</g>
<g
   id="g40"
   style="fill:#827c02;fill-opacity:1">
</g>
<g
   id="g42"
   style="fill:#827c02;fill-opacity:1">
</g>
<g
   id="g44"
   style="fill:#827c02;fill-opacity:1">
</g>
<g
   id="g46"
   style="fill:#827c02;fill-opacity:1">
</g>
</svg>
