<svg width="54" height="55" viewBox="0 0 54 55" fill="none" xmlns="http://www.w3.org/2000/svg">
<path d="M0.892115 11.6717C0.399443 11.6717 0 11.2722 0 10.7796V0.892115C0.000105701 0.399443 0.399443 0 0.892115 0C1.38479 0 1.78423 0.399443 1.78423 0.892115V10.7797C1.78423 11.2725 1.38479 11.6717 0.892115 11.6717Z" fill="#247674"/>
<path d="M53.1079 54.1188H0.892115C0.399443 54.1188 0 53.7193 0 53.2267V14.3478C0 13.8551 0.399443 13.4557 0.892115 13.4557C1.38479 13.4557 1.78423 13.8551 1.78423 14.3478V52.3347H53.1079C53.6006 52.3347 54 52.7341 54 53.2268C54 53.7194 53.6006 54.1188 53.1079 54.1188Z" fill="#247674"/>
<path d="M45.6145 35.9144C45.3914 35.9144 45.1685 35.8312 44.996 35.665L27.4345 18.7668C27.0794 18.4252 27.0686 17.8605 27.4101 17.5056C27.7518 17.1507 28.3165 17.1398 28.6714 17.4813L45.6206 33.7903L49.76 29.8871C50.1187 29.5491 50.6831 29.5658 51.0211 29.9241C51.3591 30.2826 51.3426 30.8472 50.9841 31.1851L46.2264 35.6712C46.0545 35.8335 45.8344 35.9144 45.6145 35.9144Z" fill="#09ABA7"/>
<path d="M45.6145 35.9144C45.3914 35.9144 45.1685 35.8312 44.996 35.665L27.4345 18.7668C27.0794 18.4252 27.0686 17.8605 27.4101 17.5056C27.7518 17.1507 28.3165 17.1398 28.6714 17.4813L45.6206 33.7903L49.76 29.8871C50.1187 29.5491 50.6831 29.5658 51.0211 29.9241C51.3591 30.2826 51.3426 30.8472 50.9841 31.1851L46.2264 35.6712C46.0545 35.8335 45.8344 35.9144 45.6145 35.9144Z" fill="#20717C"/>
<path d="M5.17411 28.5462C4.93522 28.5462 4.69719 28.451 4.5213 28.2624C4.18538 27.9019 4.20515 27.3376 4.56569 27.0016L21.2176 11.4796C21.5642 11.1566 22.103 11.1609 22.4443 11.4894L26.4566 15.3501C26.8117 15.6917 26.8225 16.2565 26.481 16.6115C26.1393 16.9665 25.5746 16.9773 25.2195 16.6358L21.816 13.3609L5.78231 28.3067C5.61033 28.467 5.39206 28.5462 5.17411 28.5462Z" fill="#20717C"/>
<path d="M33.7201 42.8194C33.4908 42.8194 33.2695 42.731 33.103 42.5716L21.8297 31.7752L17.8208 35.663C17.467 36.006 16.9024 35.9972 16.5594 35.6436C16.2165 35.2899 16.2251 34.7252 16.5787 34.3822L21.2047 29.8961C21.5492 29.5621 22.0963 29.5602 22.4428 29.8922L33.6528 40.6279L49.6918 21.7249C50.0106 21.3494 50.5736 21.3031 50.9491 21.6219C51.3248 21.9407 51.3709 22.5037 51.0521 22.8792L34.4002 42.5047C34.2411 42.6921 34.0116 42.8057 33.7661 42.8184C33.7508 42.819 33.7354 42.8194 33.7201 42.8194Z" fill="#E6EE9C"/>
<path d="M5.17405 47.577C4.94119 47.577 4.70855 47.4864 4.53351 47.3059C4.19061 46.9523 4.19918 46.3875 4.55285 46.0445L14.4385 36.4575C14.7923 36.1145 15.3569 36.1233 15.7001 36.4769C16.0429 36.8304 16.0344 37.3953 15.6807 37.7383L5.79505 47.3253C5.6218 47.4934 5.39772 47.577 5.17405 47.577Z" fill="#E6EE9C"/>
</svg>
