<svg width="50" height="50" viewBox="0 0 50 50" fill="none" xmlns="http://www.w3.org/2000/svg">
<path d="M49.5 25C49.5 38.531 38.531 49.5 25 49.5C11.469 49.5 0.5 38.531 0.5 25C0.5 11.469 11.469 0.5 25 0.5C38.531 0.5 49.5 11.469 49.5 25Z" fill="url(#paint0_linear)" stroke="#44605D"/>
<path d="M12.6374 38.8101L12.6373 38.8101C12.4331 38.6271 12.3164 38.3659 12.3164 38.0916V36.7188C12.3164 29.7255 18.0067 24.0352 25 24.0352C31.9933 24.0352 37.6836 29.7255 37.6836 36.7188V38.0916C37.6836 38.3658 37.5669 38.6272 37.3627 38.8101L37.3626 38.8101C33.8825 41.9286 29.4912 43.6406 25 43.6406C20.5089 43.6406 16.1176 41.9286 12.6374 38.8101ZM25 9.38672C28.7624 9.38672 31.8242 12.4485 31.8242 16.2109C31.8242 19.9734 28.7624 23.0352 25 23.0352C21.2376 23.0352 18.1758 19.9734 18.1758 16.2109C18.1758 12.4485 21.2376 9.38672 25 9.38672Z" fill="url(#paint1_linear)" stroke="#44605D"/>
<defs>
<linearGradient id="paint0_linear" x1="25" y1="50" x2="25" y2="0" gradientUnits="userSpaceOnUse">
<stop stop-color="#E6EE9C"/>
</linearGradient>
<linearGradient id="paint1_linear" x1="25" y1="44.1406" x2="25" y2="8.88672" gradientUnits="userSpaceOnUse">
<stop stop-color="white"/>
</linearGradient>
</defs>
</svg>
