<?xml version="1.0" encoding="UTF-8" standalone="no"?>
<!-- Generator: Adobe Illustrator 19.0.0, SVG Export Plug-In . SVG Version: 6.00 Build 0)  -->

<svg
   version="1.1"
   id="Capa_1"
   x="0px"
   y="0px"
   viewBox="0 0 512 512"
   style="enable-background:new 0 0 512 512;"
   xml:space="preserve"
   sodipodi:docname="settings.svg"
   inkscape:version="1.1 (c4e8f9ed74, 2021-05-24)"
   xmlns:inkscape="http://www.inkscape.org/namespaces/inkscape"
   xmlns:sodipodi="http://sodipodi.sourceforge.net/DTD/sodipodi-0.dtd"
   xmlns="http://www.w3.org/2000/svg"
   xmlns:svg="http://www.w3.org/2000/svg"><defs
   id="defs47" /><sodipodi:namedview
   id="namedview45"
   pagecolor="#ffffff"
   bordercolor="#666666"
   borderopacity="1.0"
   inkscape:pageshadow="2"
   inkscape:pageopacity="0.0"
   inkscape:pagecheckerboard="0"
   showgrid="false"
   inkscape:zoom="1.6699219"
   inkscape:cx="255.70058"
   inkscape:cy="255.70058"
   inkscape:current-layer="g4" />
<g
   id="g6">
	<g
   id="g4">
		<path
   d="M455.68,212.48c-5.12-23.04-15.36-46.08-28.16-66.56l25.6-53.76l-35.84-35.84l-53.76,25.6    c-20.48-12.8-40.96-20.48-64-25.6L281.6,0h-51.2l-20.48,56.32c-23.04,5.12-43.52,15.36-64,28.16l-53.76-25.6L56.32,92.16    l25.6,53.76c-12.8,20.48-20.48,40.96-25.6,64L0,230.4v51.2l56.32,20.48c5.12,23.04,15.36,46.08,25.6,64l-25.6,53.76l35.84,35.84    l53.76-25.6c20.48,12.8,40.96,23.04,64,28.16L230.4,512h51.2l20.48-56.32c7.68-2.56,17.92-5.12,25.6-7.68l-40.96-40.96    C189.44,424.96,102.4,353.28,102.4,256c0-84.48,69.12-153.6,153.6-153.6c94.72,0,166.4,84.48,151.04,174.08L450.56,320    c2.56-7.68,5.12-12.8,5.12-20.48L512,281.6v-51.2L455.68,212.48z"
   id="path2"
   style="fill:#00838f;fill-opacity:1" />
	</g>
</g>
<g
   id="g12">
	<g
   id="g10">
		<path
   d="M 501.76,445.44 350.72,294.4 C 386.56,215.04 312.32,130.56 230.4,153.6 l 46.08,46.08 c 20.48,20.48 20.48,53.76 0,71.68 -17.92,20.48 -53.76,20.48 -71.68,0 l -46.08,-43.52 c -23.04,71.68 51.2,153.6 135.68,120.32 L 445.44,499.2 c 15.36,15.36 38.4,15.36 53.76,0 15.36,-12.8 15.36,-38.4 2.56,-53.76 z"
   id="path8"
   style="fill:#00838f;fill-opacity:1" />
	</g>
</g>
<g
   id="g14">
</g>
<g
   id="g16">
</g>
<g
   id="g18">
</g>
<g
   id="g20">
</g>
<g
   id="g22">
</g>
<g
   id="g24">
</g>
<g
   id="g26">
</g>
<g
   id="g28">
</g>
<g
   id="g30">
</g>
<g
   id="g32">
</g>
<g
   id="g34">
</g>
<g
   id="g36">
</g>
<g
   id="g38">
</g>
<g
   id="g40">
</g>
<g
   id="g42">
</g>
</svg>
