<svg width="34" height="29" viewBox="0 0 34 29" fill="none" xmlns="http://www.w3.org/2000/svg">
<path d="M22.2222 4.57064C22.2222 2.05039 20.1038 0 17.5 0C14.8962 0 12.7778 2.05039 12.7778 4.57064C12.7778 7.09089 14.8962 9.14127 17.5 9.14127C20.1038 9.14127 22.2222 7.09089 22.2222 4.57064ZM17.5 9.14127C12.8131 9.14127 9 12.832 9 17.3684V18.2251C9 18.485 9.11421 18.7325 9.31419 18.9059C11.6147 20.9012 14.5219 22 17.5 22C20.4782 22 23.3853 20.9012 25.6858 18.9059C25.8858 18.7325 26 18.4849 26 18.2251V17.3684C26 12.832 22.1869 9.14127 17.5 9.14127Z" fill="url(#paint0_linear)"/>
<path d="M30.2222 11.5706C30.2222 9.05039 28.1038 7 25.5 7C22.8962 7 20.7778 9.05039 20.7778 11.5706C20.7778 14.0909 22.8962 16.1413 25.5 16.1413C28.1038 16.1413 30.2222 14.0909 30.2222 11.5706ZM25.5 16.1413C20.8131 16.1413 17 19.832 17 24.3684V25.2251C17 25.485 17.1142 25.7325 17.3142 25.9059C19.6147 27.9012 22.5219 29 25.5 29C28.4782 29 31.3853 27.9012 33.6858 25.9059C33.8858 25.7325 34 25.4849 34 25.2251V24.3684C34 19.832 30.1869 16.1413 25.5 16.1413Z" fill="url(#paint1_linear)"/>
<path d="M13.2222 11.5706C13.2222 9.05039 11.1038 7 8.5 7C5.89617 7 3.77778 9.05039 3.77778 11.5706C3.77778 14.0909 5.89617 16.1413 8.5 16.1413C11.1038 16.1413 13.2222 14.0909 13.2222 11.5706ZM8.5 16.1413C3.8131 16.1413 0 19.832 0 24.3684V25.2251C0 25.485 0.114215 25.7325 0.314185 25.9059C2.61473 27.9012 5.52185 29 8.5 29C11.4782 29 14.3853 27.9012 16.6858 25.9059C16.8858 25.7325 17 25.4849 17 25.2251V24.3684C17 19.832 13.1869 16.1413 8.5 16.1413Z" fill="url(#paint2_linear)"/>
<defs>
<linearGradient id="paint0_linear" x1="17.5" y1="22" x2="17.5" y2="0" gradientUnits="userSpaceOnUse">
<stop stop-color="#00ACC1" stop-opacity="0.41"/>
</linearGradient>
<linearGradient id="paint1_linear" x1="25.5" y1="29" x2="25.5" y2="7" gradientUnits="userSpaceOnUse">
<stop stop-color="#00838F"/>
</linearGradient>
<linearGradient id="paint2_linear" x1="8.5" y1="29" x2="8.5" y2="7" gradientUnits="userSpaceOnUse">
<stop stop-color="#00838F"/>
</linearGradient>
</defs>
</svg>
