<?xml version="1.0" encoding="UTF-8" standalone="no"?>
<svg
   xmlns:dc="http://purl.org/dc/elements/1.1/"
   xmlns:cc="http://creativecommons.org/ns#"
   xmlns:rdf="http://www.w3.org/1999/02/22-rdf-syntax-ns#"
   xmlns:svg="http://www.w3.org/2000/svg"
   xmlns="http://www.w3.org/2000/svg"
   xmlns:sodipodi="http://sodipodi.sourceforge.net/DTD/sodipodi-0.dtd"
   xmlns:inkscape="http://www.inkscape.org/namespaces/inkscape"
   version="1.1"
   id="Capa_1"
   x="0px"
   y="0px"
   viewBox="0 0 1407.6 699.3"
   style="enable-background:new 0 0 1407.6 699.3;"
   xml:space="preserve"
   sodipodi:docname="cmodels_SVG.svg"
   inkscape:version="1.0.2 (e86c870879, 2021-01-15, custom)"><metadata
   id="metadata31"><rdf:RDF><cc:Work
       rdf:about=""><dc:format>image/svg+xml</dc:format><dc:type
         rdf:resource="http://purl.org/dc/dcmitype/StillImage" /></cc:Work></rdf:RDF></metadata><defs
   id="defs29" /><sodipodi:namedview
   pagecolor="#ffffff"
   bordercolor="#666666"
   borderopacity="1"
   objecttolerance="10"
   gridtolerance="10"
   guidetolerance="10"
   inkscape:pageopacity="0"
   inkscape:pageshadow="2"
   inkscape:window-width="640"
   inkscape:window-height="480"
   id="namedview27"
   showgrid="false"
   inkscape:zoom="0.57260586"
   inkscape:cx="703.79999"
   inkscape:cy="349.64999"
   inkscape:current-layer="g24" />
<style
   type="text/css"
   id="style2">
	.st0{fill:#63B2B0;}
	.st1{fill:#C99C66;}
	.st2{fill:#683C15;}
	.st3{fill:#78E8E1;}
</style>
<g
   id="g24">
	<g
   id="g6">
		<polygon
   points="346.1,365.4 520.6,364.6 520.8,382.7 520.8,382.9 557.2,357.2 557.3,357.1 520.3,332.4 520.1,332.3 520.4,350.7 345.9,351.5 "
   id="polygon4" />
	</g>
	<circle
   class="st0"
   cx="213.10001"
   cy="357.60001"
   r="102.1"
   id="circle8"
   style="fill:#4fccc9;fill-opacity:1" />
	<circle
   class="st1"
   cx="694"
   cy="357.60001"
   r="102.1"
   id="circle10"
   style="fill:#09aba7;fill-opacity:1" />
	<circle
   class="st2"
   cx="1194.5"
   cy="561.79999"
   r="102.1"
   id="circle12"
   style="fill:#f6b0b1;fill-opacity:1" />
	<circle
   class="st3"
   cx="1194.5"
   cy="137.5"
   r="102.1"
   id="circle14"
   style="fill:#ee7374;fill-opacity:1" />
	<g
   id="g18">
		<polygon
   points="840.2,358.3 1038.8,184.8 1052.1,199.3 1052.2,199.5 1063.1,152.6 1063.2,152.4 1015.6,159 1015.3,159 1028.7,173.7 840.3,337.1 "
   id="polygon16" />
	</g>
	<g
   id="g22">
		<polygon
   points="840.3,392.6 1026.3,561.3 1013.5,576.1 1013.3,576.3 1061.2,581.7 1061.4,581.7 1049.3,535.2 1049.2,534.9 1036.2,550 840.5,371.5 "
   id="polygon20" />
	</g>
</g>
</svg>
