<?xml version="1.0" encoding="utf-8"?>
<!-- Generator: Adobe Illustrator 24.0.2, SVG Export Plug-In . SVG Version: 6.00 Build 0)  -->
<svg version="1.1" id="Capa_1" xmlns="http://www.w3.org/2000/svg" xmlns:xlink="http://www.w3.org/1999/xlink" x="0px" y="0px"
	 viewBox="0 0 1407.6 699.3" style="enable-background:new 0 0 1407.6 699.3;" xml:space="preserve">
<style type="text/css">
	.st0{fill:#63B2B0;}
	.st1{fill:#C99C66;}
	.st2{fill:#683C15;}
	.st3{fill:#78E8E1;}
</style>
<g>
	<g>
		<polygon points="520.3,332.4 520.1,332.3 520.4,350.7 345.9,351.5 346.1,365.4 520.6,364.6 520.8,382.7 520.8,382.9 557.2,357.2 
			557.3,357.1 		"/>
	</g>
	<circle class="st0" cx="213.1" cy="357.6" r="102.1"/>
	<circle class="st1" cx="694" cy="357.6" r="102.1"/>
	<circle class="st2" cx="1194.5" cy="561.8" r="102.1"/>
	<circle class="st3" cx="1194.5" cy="137.5" r="102.1"/>
	<g>
		<polygon points="1015.6,159 1015.3,159 1028.7,173.7 840.3,337.1 840.2,358.3 1038.8,184.8 1052.1,199.3 1052.2,199.5 
			1063.1,152.6 1063.2,152.4 		"/>
	</g>
	<g>
		<polygon points="1049.3,535.2 1049.2,534.9 1036.2,550 840.5,371.5 840.3,392.6 1026.3,561.3 1013.5,576.1 1013.3,576.3 
			1061.2,581.7 1061.4,581.7 		"/>
	</g>
</g>
</svg>
